<svg width="108" height="108" viewBox="0 0 108 108" fill="none" xmlns="http://www.w3.org/2000/svg">
<path opacity="0.15" d="M54 0L63.4309 9.63123L75.9638 4.66854L80.6619 17.303L94.1298 17.8669L93.2829 31.32L105.357 37.3131L99.1115 49.2586L107.704 59.6445L97.1399 68.017L100.765 81L87.709 84.3518L85.7404 97.6869L72.4496 95.4384L65.2272 106.82L54 99.36L42.7728 106.82L35.5504 95.4384L22.2596 97.6869L20.291 84.3518L7.23463 81L10.8601 68.017L0.295818 59.6445L8.88849 49.2586L2.64295 37.3131L14.7171 31.32L13.8702 17.8669L27.3381 17.303L32.0362 4.66854L44.5691 9.63123L54 0Z" fill="#25C164"/>
<path d="M42 53.5L51.5 60.5L66 45" stroke="#25C164" stroke-width="5"/>
</svg>
